<?xml version="1.0" encoding="iso-8859-1"?>
<!-- Uploaded to: SVG Repo, www.svgrepo.com, Generator: SVG Repo Mixer Tools -->
<svg fill="#000000" height="800px" width="800px" version="1.1" id="Layer_1" xmlns="http://www.w3.org/2000/svg" xmlns:xlink="http://www.w3.org/1999/xlink" 
	 viewBox="0 0 512 512" xml:space="preserve">
<g>
	<g>
		<path d="M512,82.507L429.493,0L181.846,247.644c-14.296-5.112-29.684-7.906-45.715-7.906C61.068,239.738,0,300.807,0,375.869
			S61.068,512,136.131,512s136.131-61.068,136.131-136.131c0-16.031-2.794-31.422-7.907-45.719l128.466-128.466l32.087,32.087
			l27.504-27.502l-32.087-32.087l27.502-27.502l32.087,32.084l27.502-27.502l-32.087-32.084L512,82.507z M136.131,473.105
			c-53.616,0-97.236-43.62-97.236-97.236c0-53.616,43.62-97.236,97.236-97.236c53.616,0,97.236,43.62,97.236,97.236
			C233.367,429.487,189.747,473.105,136.131,473.105z M246.142,293.359l-27.502-27.502L429.493,55.005l27.501,27.502
			L246.142,293.359z"/>
	</g>
</g>
<g>
	<g>
		<path d="M136.159,317.526c-32.17,0-58.342,26.172-58.342,58.342c0,32.171,26.172,58.342,58.342,58.342
			c32.168,0,58.342-26.171,58.342-58.342C194.501,343.698,168.328,317.526,136.159,317.526z M136.159,395.315
			c-10.723,0-19.447-8.723-19.447-19.447c0-10.723,8.724-19.447,19.447-19.447s19.447,8.724,19.447,19.447
			C155.607,386.592,146.881,395.315,136.159,395.315z"/>
	</g>
</g>
</svg>