<?xml version="1.0" encoding="utf-8"?>
<!-- Generator: Adobe Illustrator 27.3.1, SVG Export Plug-In . SVG Version: 6.00 Build 0)  -->
<svg version="1.2" baseProfile="tiny" id="Шар_1"
	 xmlns="http://www.w3.org/2000/svg" xmlns:xlink="http://www.w3.org/1999/xlink" x="0px" y="0px" viewBox="0 0 100 100"
	 overflow="visible" xml:space="preserve">
<g>
	<g>
		<path d="M26.67,60.87L20.2,81h-8.32l21.16-64h9.7L64,81h-8.59l-6.65-20.13H26.67z M47.09,54.41l-6.1-18.42
			c-1.39-4.18-2.31-7.98-3.23-11.68h-0.19c-0.92,3.8-1.94,7.69-3.14,11.58l-6.1,18.52H47.09z"/>
	</g>
	<g>
		<path d="M85.27,50.99C75.18,51.33,65.09,51.66,55,52c2.67,7.33,5.33,14.67,8,22c8.26,0.02,16.53,0.05,24.79,0.07V81H56
			c-7-21.33-14-42.67-21-64c16,0,32,0,48,0c1.18,2.31,2.35,4.62,3.53,6.93C72.69,23.95,58.84,23.98,45,24c2.67,7,5.33,14,8,21
			c10.76-0.28,21.51-0.56,32.27-0.84V50.99z"/>
	</g>
</g>
</svg>
